<svg width="16" height="16" viewBox="0 0 16 16" fill="none" xmlns="http://www.w3.org/2000/svg">
<g clip-path="url(#clip0_35_2)">
<rect width="16" height="16" rx="8" fill="#0F172A"/>
<path d="M7.67 4.98V6.35H5.81V12H4.1V6.35H2.24V4.98H7.67ZM11.9782 8.39C12.3715 8.46333 12.7049 8.66333 12.9782 8.99C13.2515 9.31667 13.3882 9.69667 13.3882 10.13C13.3882 10.4833 13.2982 10.8033 13.1182 11.09C12.9449 11.37 12.6882 11.5933 12.3482 11.76C12.0082 11.92 11.6015 12 11.1282 12H8.7082V5.01H11.0582C11.7649 5.01 12.3015 5.17333 12.6682 5.5C13.0415 5.82667 13.2282 6.25 13.2282 6.77C13.2282 7.20333 13.1115 7.55667 12.8782 7.83C12.6449 8.09667 12.3449 8.28333 11.9782 8.39ZM9.4082 8.1H11.0382C11.5115 8.1 11.8749 7.99 12.1282 7.77C12.3882 7.54333 12.5182 7.23333 12.5182 6.84C12.5182 6.45333 12.3882 6.15 12.1282 5.93C11.8749 5.71 11.5015 5.6 11.0082 5.6H9.4082V8.1ZM11.0782 11.41C11.5849 11.41 11.9782 11.29 12.2582 11.05C12.5449 10.81 12.6882 10.48 12.6882 10.06C12.6882 9.64 12.5382 9.30667 12.2382 9.06C11.9449 8.80667 11.5482 8.68 11.0482 8.68H9.4082V11.41H11.0782Z" fill="#F8FAFC"/>
</g>
<defs>
<clipPath id="clip0_35_2">
<rect width="16" height="16" rx="8" fill="white"/>
</clipPath>
</defs>
</svg>
